<svg xmlns="http://www.w3.org/2000/svg" viewBox="0 0 400 300">
  <defs>
    <linearGradient id="bg" x1="0" y1="0" x2="0" y2="1">
      <stop offset="0%" stop-color="#0f0f0f"/><stop offset="100%" stop-color="#1a1000"/>
    </linearGradient>
  </defs>
  <rect width="400" height="300" fill="url(#bg)" rx="16"/>
  <!-- Board -->
  <rect x="50" y="20" width="300" height="240" rx="4" fill="#8B4513"/>
  <!-- Squares -->
  <g>
    <!-- Row 1 -->
    <rect x="50" y="20" width="37" height="30" fill="#f0d9b5"/>
    <rect x="87" y="20" width="38" height="30" fill="#b58863"/>
    <rect x="125" y="20" width="37" height="30" fill="#f0d9b5"/>
    <rect x="162" y="20" width="38" height="30" fill="#b58863"/>
    <rect x="200" y="20" width="37" height="30" fill="#f0d9b5"/>
    <rect x="237" y="20" width="38" height="30" fill="#b58863"/>
    <rect x="275" y="20" width="37" height="30" fill="#f0d9b5"/>
    <rect x="312" y="20" width="38" height="30" fill="#b58863"/>
    <!-- Row 2 -->
    <rect x="50" y="50" width="37" height="30" fill="#b58863"/>
    <rect x="87" y="50" width="38" height="30" fill="#f0d9b5"/>
    <rect x="125" y="50" width="37" height="30" fill="#b58863"/>
    <rect x="162" y="50" width="38" height="30" fill="#f0d9b5"/>
    <rect x="200" y="50" width="37" height="30" fill="#b58863"/>
    <rect x="237" y="50" width="38" height="30" fill="#f0d9b5"/>
    <rect x="275" y="50" width="37" height="30" fill="#b58863"/>
    <rect x="312" y="50" width="38" height="30" fill="#f0d9b5"/>
    <!-- Row 3 -->
    <rect x="50" y="80" width="37" height="30" fill="#f0d9b5"/>
    <rect x="87" y="80" width="38" height="30" fill="#b58863"/>
    <rect x="125" y="80" width="37" height="30" fill="#f0d9b5"/>
    <rect x="162" y="80" width="38" height="30" fill="#b58863"/>
    <rect x="200" y="80" width="37" height="30" fill="#f0d9b5"/>
    <rect x="237" y="80" width="38" height="30" fill="#b58863"/>
    <rect x="275" y="80" width="37" height="30" fill="#f0d9b5"/>
    <rect x="312" y="80" width="38" height="30" fill="#b58863"/>
    <!-- Row 4 -->
    <rect x="50" y="110" width="37" height="30" fill="#b58863"/>
    <rect x="87" y="110" width="38" height="30" fill="#f0d9b5"/>
    <rect x="125" y="110" width="37" height="30" fill="#b58863"/>
    <rect x="162" y="110" width="38" height="30" fill="#f0d9b5"/>
    <rect x="200" y="110" width="37" height="30" fill="#b58863"/>
    <rect x="237" y="110" width="38" height="30" fill="#f0d9b5"/>
    <rect x="275" y="110" width="37" height="30" fill="#b58863"/>
    <rect x="312" y="110" width="38" height="30" fill="#f0d9b5"/>
    <!-- Row 5 -->
    <rect x="50" y="140" width="37" height="30" fill="#f0d9b5"/>
    <rect x="87" y="140" width="38" height="30" fill="#b58863"/>
    <rect x="125" y="140" width="37" height="30" fill="#f0d9b5"/>
    <rect x="162" y="140" width="38" height="30" fill="#b58863"/>
    <rect x="200" y="140" width="37" height="30" fill="#f0d9b5"/>
    <rect x="237" y="140" width="38" height="30" fill="#b58863"/>
    <rect x="275" y="140" width="37" height="30" fill="#f0d9b5"/>
    <rect x="312" y="140" width="38" height="30" fill="#b58863"/>
    <!-- Row 6 -->
    <rect x="50" y="170" width="37" height="30" fill="#b58863"/>
    <rect x="87" y="170" width="38" height="30" fill="#f0d9b5"/>
    <rect x="125" y="170" width="37" height="30" fill="#b58863"/>
    <rect x="162" y="170" width="38" height="30" fill="#f0d9b5"/>
    <rect x="200" y="170" width="37" height="30" fill="#b58863"/>
    <rect x="237" y="170" width="38" height="30" fill="#f0d9b5"/>
    <rect x="275" y="170" width="37" height="30" fill="#b58863"/>
    <rect x="312" y="170" width="38" height="30" fill="#f0d9b5"/>
    <!-- Row 7 -->
    <rect x="50" y="200" width="37" height="30" fill="#f0d9b5"/>
    <rect x="87" y="200" width="38" height="30" fill="#b58863"/>
    <rect x="125" y="200" width="37" height="30" fill="#f0d9b5"/>
    <rect x="162" y="200" width="38" height="30" fill="#b58863"/>
    <rect x="200" y="200" width="37" height="30" fill="#f0d9b5"/>
    <rect x="237" y="200" width="38" height="30" fill="#b58863"/>
    <rect x="275" y="200" width="37" height="30" fill="#f0d9b5"/>
    <rect x="312" y="200" width="38" height="30" fill="#b58863"/>
    <!-- Row 8 -->
    <rect x="50" y="230" width="37" height="30" fill="#b58863"/>
    <rect x="87" y="230" width="38" height="30" fill="#f0d9b5"/>
    <rect x="125" y="230" width="37" height="30" fill="#b58863"/>
    <rect x="162" y="230" width="38" height="30" fill="#f0d9b5"/>
    <rect x="200" y="230" width="37" height="30" fill="#b58863"/>
    <rect x="237" y="230" width="38" height="30" fill="#f0d9b5"/>
    <rect x="275" y="230" width="37" height="30" fill="#b58863"/>
    <rect x="312" y="230" width="38" height="30" fill="#f0d9b5"/>
  </g>
  <!-- Black pieces -->
  <g fill="#222" stroke="#444" stroke-width="1.5">
    <circle cx="106" cy="35" r="13"/>
    <circle cx="181" cy="35" r="13"/>
    <circle cx="256" cy="35" r="13"/>
    <circle cx="68" cy="65" r="13"/>
    <circle cx="143" cy="65" r="13"/>
    <circle cx="218" cy="65" r="13"/>
    <circle cx="293" cy="65" r="13"/>
  </g>
  <!-- Red pieces -->
  <g fill="#c0392b" stroke="#922b21" stroke-width="1.5">
    <circle cx="68" cy="245" r="13"/>
    <circle cx="143" cy="245" r="13"/>
    <circle cx="218" cy="245" r="13"/>
    <circle cx="293" cy="245" r="13"/>
    <circle cx="106" cy="215" r="13"/>
    <circle cx="181" cy="215" r="13"/>
    <circle cx="256" cy="215" r="13"/>
  </g>
  <!-- Selected piece highlight -->
  <circle cx="106" cy="125" r="13" fill="#c0392b" stroke="#f1c40f" stroke-width="3"/>
  <text x="200" y="286" font-family="-apple-system,BlinkMacSystemFont,sans-serif" font-size="13" fill="#f0d9b5" text-anchor="middle" font-weight="bold">跳棋</text>
</svg>
