<svg xmlns="http://www.w3.org/2000/svg" viewBox="0 0 400 300">
  <defs>
    <linearGradient id="bg" x1="0" y1="0" x2="0" y2="1">
      <stop offset="0%" stop-color="#1a1a2e"/>
      <stop offset="100%" stop-color="#16213e"/>
    </linearGradient>
    <linearGradient id="alien" x1="0" y1="0" x2="1" y2="1">
      <stop offset="0%" stop-color="#00b894"/>
      <stop offset="100%" stop-color="#55efc4"/>
    </linearGradient>
  </defs>
  <rect width="400" height="300" fill="url(#bg)" rx="16"/>
  <g opacity="0.8">
    <rect x="80" y="40" width="30" height="30" rx="3" fill="url(#alien)"/>
    <rect x="130" y="40" width="30" height="30" rx="3" fill="#55efc4"/>
    <rect x="180" y="40" width="30" height="30" rx="3" fill="url(#alien)"/>
    <rect x="230" y="40" width="30" height="30" rx="3" fill="#55efc4"/>
    <rect x="280" y="40" width="30" height="30" rx="3" fill="url(#alien)"/>
    <rect x="105" y="90" width="30" height="30" rx="3" fill="#55efc4"/>
    <rect x="155" y="90" width="30" height="30" rx="3" fill="url(#alien)"/>
    <rect x="205" y="90" width="30" height="30" rx="3" fill="#55efc4"/>
    <rect x="255" y="90" width="30" height="30" rx="3" fill="url(#alien)"/>
  </g>
  <rect x="160" y="200" width="80" height="30" rx="6" fill="#0984e3"/>
  <rect x="180" y="230" width="40" height="15" rx="3" fill="#74b9ff"/>
  <text x="200" y="290" font-family="Arial, sans-serif" font-size="14" fill="#00b894" text-anchor="middle" opacity="0.6">Space Invaders</text>
</svg>
