<svg xmlns="http://www.w3.org/2000/svg" viewBox="0 0 400 300">
  <defs>
    <linearGradient id="bg" x1="0" y1="0" x2="0" y2="1">
      <stop offset="0%" stop-color="#1a1a2e"/>
      <stop offset="100%" stop-color="#16213e"/>
    </linearGradient>
    <linearGradient id="tower" x1="0" y1="0" x2="1" y2="1">
      <stop offset="0%" stop-color="#636e72"/>
      <stop offset="100%" stop-color="#2d3436"/>
    </linearGradient>
  </defs>
  <rect width="400" height="300" fill="url(#bg)" rx="16"/>
  <rect x="170" y="60" width="60" height="170" rx="6" fill="url(#tower)"/>
  <rect x="155" y="50" width="90" height="20" rx="4" fill="#b2bec3"/>
  <circle cx="200" cy="100" r="8" fill="#fdcb6e"/>
  <circle cx="200" cy="130" r="6" fill="#00cec9"/>
  <rect x="195" y="180" width="10" height="50" rx="3" fill="#e17055"/>
  <path d="M205 210 L220 220 L205 230" fill="#e17055" opacity="0.8"/>
  <path d="M80 230 L320 230 L300 250 L100 250 Z" fill="#2d3436" opacity="0.5"/>
  <circle cx="100" cy="215" r="8" fill="#e17055" opacity="0.7"/>
  <circle cx="130" cy="220" r="6" fill="#e17055" opacity="0.5"/>
  <circle cx="280" cy="215" r="8" fill="#e17055" opacity="0.7"/>
  <circle cx="310" cy="220" r="6" fill="#e17055" opacity="0.5"/>
  <text x="200" y="290" font-family="Arial, sans-serif" font-size="14" fill="#00cec9" text-anchor="middle" opacity="0.6">Tower Defense</text>
</svg>
